<mxfile host="app.diagrams.net" agent="Mozilla/5.0 (Windows NT 10.0; Win64; x64) AppleWebKit/537.36 (KHTML, like Gecko) Chrome/127.0.0.0 Safari/537.36" version="24.7.7">
  <diagram name="Page-1" id="c7558073-3199-34d8-9f00-42111426c3f3">
    <mxGraphModel dx="1366" dy="703" grid="1" gridSize="10" guides="1" tooltips="1" connect="1" arrows="1" fold="1" page="1" pageScale="1" pageWidth="826" pageHeight="1169" background="none" math="0" shadow="0">
      <root>
        <mxCell id="0" />
        <mxCell id="1" parent="0" />
        <mxCell id="qRddKZDDPYB80dDuYmWu-113" value="" style="edgeStyle=orthogonalEdgeStyle;rounded=0;orthogonalLoop=1;jettySize=auto;html=1;fillColor=#dae8fc;strokeColor=#6c8ebf;exitX=1;exitY=0.25;exitDx=0;exitDy=0;entryX=0;entryY=0.25;entryDx=0;entryDy=0;" edge="1" parent="1" source="qRddKZDDPYB80dDuYmWu-109" target="qRddKZDDPYB80dDuYmWu-110">
          <mxGeometry relative="1" as="geometry">
            <mxPoint x="223" y="230" as="sourcePoint" />
            <mxPoint x="283" y="230" as="targetPoint" />
          </mxGeometry>
        </mxCell>
        <mxCell id="qRddKZDDPYB80dDuYmWu-116" value="1:N" style="edgeLabel;html=1;align=center;verticalAlign=middle;resizable=0;points=[];fontColor=#6C8EBF;fontStyle=1" vertex="1" connectable="0" parent="qRddKZDDPYB80dDuYmWu-113">
          <mxGeometry x="-0.1046" relative="1" as="geometry">
            <mxPoint as="offset" />
          </mxGeometry>
        </mxCell>
        <mxCell id="qRddKZDDPYB80dDuYmWu-122" style="edgeStyle=orthogonalEdgeStyle;rounded=0;orthogonalLoop=1;jettySize=auto;html=1;exitX=1;exitY=0.5;exitDx=0;exitDy=0;entryX=0;entryY=0.5;entryDx=0;entryDy=0;strokeWidth=1;fillColor=#d5e8d4;strokeColor=#82b366;shape=flexArrow;endSize=6;width=5;startSize=6;arcSize=20;endWidth=10;" edge="1" parent="1" source="qRddKZDDPYB80dDuYmWu-109" target="qRddKZDDPYB80dDuYmWu-110">
          <mxGeometry relative="1" as="geometry">
            <mxPoint x="233" y="260" as="sourcePoint" />
            <mxPoint x="293" y="260" as="targetPoint" />
          </mxGeometry>
        </mxCell>
        <mxCell id="qRddKZDDPYB80dDuYmWu-109" value="Departamento" style="whiteSpace=wrap;html=1;aspect=fixed;fillColor=#dae8fc;strokeColor=#6c8ebf;fontStyle=1" vertex="1" parent="1">
          <mxGeometry x="123" y="200" width="100" height="100" as="geometry" />
        </mxCell>
        <mxCell id="qRddKZDDPYB80dDuYmWu-114" value="" style="edgeStyle=orthogonalEdgeStyle;rounded=0;orthogonalLoop=1;jettySize=auto;html=1;fillColor=#dae8fc;strokeColor=#6c8ebf;exitX=1;exitY=0.25;exitDx=0;exitDy=0;entryX=0;entryY=0.25;entryDx=0;entryDy=0;" edge="1" parent="1" source="qRddKZDDPYB80dDuYmWu-110" target="qRddKZDDPYB80dDuYmWu-111">
          <mxGeometry relative="1" as="geometry">
            <mxPoint x="383" y="230" as="sourcePoint" />
            <mxPoint x="443" y="230" as="targetPoint" />
          </mxGeometry>
        </mxCell>
        <mxCell id="qRddKZDDPYB80dDuYmWu-117" value="1:N" style="edgeLabel;html=1;align=center;verticalAlign=middle;resizable=0;points=[];fontColor=#6C8EBF;fontStyle=1" vertex="1" connectable="0" parent="qRddKZDDPYB80dDuYmWu-114">
          <mxGeometry x="0.0563" relative="1" as="geometry">
            <mxPoint as="offset" />
          </mxGeometry>
        </mxCell>
        <mxCell id="qRddKZDDPYB80dDuYmWu-110" value="Curso" style="whiteSpace=wrap;html=1;aspect=fixed;fillColor=#dae8fc;strokeColor=#6c8ebf;fontStyle=1" vertex="1" parent="1">
          <mxGeometry x="283" y="200" width="100" height="100" as="geometry" />
        </mxCell>
        <mxCell id="qRddKZDDPYB80dDuYmWu-115" value="" style="edgeStyle=orthogonalEdgeStyle;rounded=0;orthogonalLoop=1;jettySize=auto;html=1;fillColor=#dae8fc;strokeColor=#6c8ebf;exitX=1;exitY=0.25;exitDx=0;exitDy=0;entryX=0;entryY=0.25;entryDx=0;entryDy=0;" edge="1" parent="1" source="qRddKZDDPYB80dDuYmWu-111" target="qRddKZDDPYB80dDuYmWu-112">
          <mxGeometry relative="1" as="geometry">
            <mxPoint x="543" y="230" as="sourcePoint" />
            <mxPoint x="603" y="230" as="targetPoint" />
          </mxGeometry>
        </mxCell>
        <mxCell id="qRddKZDDPYB80dDuYmWu-118" value="N:M" style="edgeLabel;html=1;align=center;verticalAlign=middle;resizable=0;points=[];fontColor=#6C8EBF;fontStyle=1" vertex="1" connectable="0" parent="qRddKZDDPYB80dDuYmWu-115">
          <mxGeometry x="0.0103" y="1" relative="1" as="geometry">
            <mxPoint as="offset" />
          </mxGeometry>
        </mxCell>
        <mxCell id="qRddKZDDPYB80dDuYmWu-111" value="CurrÃ­culo" style="whiteSpace=wrap;html=1;aspect=fixed;fillColor=#dae8fc;strokeColor=#6c8ebf;fontStyle=1" vertex="1" parent="1">
          <mxGeometry x="443" y="200" width="100" height="100" as="geometry" />
        </mxCell>
        <mxCell id="qRddKZDDPYB80dDuYmWu-112" value="Componente" style="whiteSpace=wrap;html=1;aspect=fixed;fillColor=#dae8fc;strokeColor=#6c8ebf;fontStyle=1" vertex="1" parent="1">
          <mxGeometry x="603" y="200" width="100" height="100" as="geometry" />
        </mxCell>
        <mxCell id="qRddKZDDPYB80dDuYmWu-123" style="edgeStyle=orthogonalEdgeStyle;rounded=0;orthogonalLoop=1;jettySize=auto;html=1;entryX=0;entryY=0.5;entryDx=0;entryDy=0;strokeWidth=1;fillColor=#d5e8d4;strokeColor=#82b366;shape=flexArrow;endSize=6;width=5;startSize=6;arcSize=20;exitX=1;exitY=0.5;exitDx=0;exitDy=0;endWidth=10;" edge="1" parent="1" source="qRddKZDDPYB80dDuYmWu-110" target="qRddKZDDPYB80dDuYmWu-111">
          <mxGeometry relative="1" as="geometry">
            <mxPoint x="393" y="260" as="sourcePoint" />
            <mxPoint x="453" y="260" as="targetPoint" />
          </mxGeometry>
        </mxCell>
        <mxCell id="qRddKZDDPYB80dDuYmWu-124" style="edgeStyle=orthogonalEdgeStyle;rounded=0;orthogonalLoop=1;jettySize=auto;html=1;entryX=0;entryY=0.5;entryDx=0;entryDy=0;strokeWidth=1;fillColor=#d5e8d4;strokeColor=#82b366;shape=flexArrow;endSize=6;width=5;startSize=6;arcSize=20;exitX=1;exitY=0.5;exitDx=0;exitDy=0;endWidth=10;" edge="1" parent="1" source="qRddKZDDPYB80dDuYmWu-111" target="qRddKZDDPYB80dDuYmWu-112">
          <mxGeometry relative="1" as="geometry">
            <mxPoint x="553" y="260" as="sourcePoint" />
            <mxPoint x="613" y="260" as="targetPoint" />
          </mxGeometry>
        </mxCell>
        <mxCell id="qRddKZDDPYB80dDuYmWu-125" style="edgeStyle=orthogonalEdgeStyle;rounded=0;orthogonalLoop=1;jettySize=auto;html=1;exitX=0;exitY=0.75;exitDx=0;exitDy=0;entryX=1;entryY=0.75;entryDx=0;entryDy=0;strokeWidth=1;fillColor=#fff2cc;strokeColor=#d6b656;shape=flexArrow;endSize=6;width=5;startSize=6;arcSize=20;endWidth=10;" edge="1" parent="1" source="qRddKZDDPYB80dDuYmWu-110" target="qRddKZDDPYB80dDuYmWu-109">
          <mxGeometry relative="1" as="geometry">
            <mxPoint x="233" y="330" as="sourcePoint" />
            <mxPoint x="293" y="330" as="targetPoint" />
          </mxGeometry>
        </mxCell>
        <mxCell id="qRddKZDDPYB80dDuYmWu-126" style="edgeStyle=orthogonalEdgeStyle;rounded=0;orthogonalLoop=1;jettySize=auto;html=1;exitX=0;exitY=0.75;exitDx=0;exitDy=0;entryX=1;entryY=0.75;entryDx=0;entryDy=0;strokeWidth=1;fillColor=#fff2cc;strokeColor=#d6b656;shape=flexArrow;endSize=6;width=5;startSize=6;arcSize=20;endWidth=10;" edge="1" parent="1" source="qRddKZDDPYB80dDuYmWu-111" target="qRddKZDDPYB80dDuYmWu-110">
          <mxGeometry relative="1" as="geometry">
            <mxPoint x="433" y="320" as="sourcePoint" />
            <mxPoint x="373" y="320" as="targetPoint" />
          </mxGeometry>
        </mxCell>
        <mxCell id="qRddKZDDPYB80dDuYmWu-127" style="edgeStyle=orthogonalEdgeStyle;rounded=0;orthogonalLoop=1;jettySize=auto;html=1;exitX=0;exitY=0.75;exitDx=0;exitDy=0;entryX=1;entryY=0.75;entryDx=0;entryDy=0;strokeWidth=1;fillColor=#f8cecc;strokeColor=#b85450;shape=flexArrow;endSize=6;width=5;startSize=6;arcSize=20;endWidth=10;" edge="1" parent="1" source="qRddKZDDPYB80dDuYmWu-112" target="qRddKZDDPYB80dDuYmWu-111">
          <mxGeometry relative="1" as="geometry">
            <mxPoint x="603" y="300" as="sourcePoint" />
            <mxPoint x="543" y="300" as="targetPoint" />
          </mxGeometry>
        </mxCell>
        <mxCell id="qRddKZDDPYB80dDuYmWu-129" value="" style="edgeStyle=orthogonalEdgeStyle;rounded=0;orthogonalLoop=1;jettySize=auto;html=1;fillColor=#dae8fc;strokeColor=#6c8ebf;exitX=0.5;exitY=0;exitDx=0;exitDy=0;entryX=0.5;entryY=0;entryDx=0;entryDy=0;" edge="1" parent="1" source="qRddKZDDPYB80dDuYmWu-109" target="qRddKZDDPYB80dDuYmWu-112">
          <mxGeometry relative="1" as="geometry">
            <mxPoint x="213" y="350" as="sourcePoint" />
            <mxPoint x="273" y="350" as="targetPoint" />
          </mxGeometry>
        </mxCell>
        <mxCell id="qRddKZDDPYB80dDuYmWu-130" value="1:N" style="edgeLabel;html=1;align=center;verticalAlign=middle;resizable=0;points=[];fontColor=#6C8EBF;fontStyle=1" vertex="1" connectable="0" parent="qRddKZDDPYB80dDuYmWu-129">
          <mxGeometry x="-0.1046" relative="1" as="geometry">
            <mxPoint x="27" as="offset" />
          </mxGeometry>
        </mxCell>
        <mxCell id="qRddKZDDPYB80dDuYmWu-132" style="edgeStyle=orthogonalEdgeStyle;rounded=0;orthogonalLoop=1;jettySize=auto;html=1;exitX=0.5;exitY=1;exitDx=0;exitDy=0;entryX=0.5;entryY=1;entryDx=0;entryDy=0;strokeWidth=1;fillColor=#fff2cc;strokeColor=#d6b656;shape=flexArrow;endSize=6;width=5;startSize=6;arcSize=20;endWidth=10;" edge="1" parent="1" source="qRddKZDDPYB80dDuYmWu-112" target="qRddKZDDPYB80dDuYmWu-109">
          <mxGeometry relative="1" as="geometry">
            <mxPoint x="673" y="330" as="sourcePoint" />
            <mxPoint x="613" y="330" as="targetPoint" />
            <Array as="points">
              <mxPoint x="653" y="330" />
              <mxPoint x="173" y="330" />
            </Array>
          </mxGeometry>
        </mxCell>
        <mxCell id="qRddKZDDPYB80dDuYmWu-133" value="" style="edgeStyle=orthogonalEdgeStyle;rounded=0;orthogonalLoop=1;jettySize=auto;html=1;fillColor=#dae8fc;strokeColor=#6c8ebf;exitX=1;exitY=0.25;exitDx=0;exitDy=0;entryX=0;entryY=0.25;entryDx=0;entryDy=0;" edge="1" parent="1">
          <mxGeometry relative="1" as="geometry">
            <mxPoint x="233" y="380" as="sourcePoint" />
            <mxPoint x="293" y="380" as="targetPoint" />
          </mxGeometry>
        </mxCell>
        <mxCell id="qRddKZDDPYB80dDuYmWu-135" style="edgeStyle=orthogonalEdgeStyle;rounded=0;orthogonalLoop=1;jettySize=auto;html=1;exitX=1;exitY=0.5;exitDx=0;exitDy=0;entryX=0;entryY=0.5;entryDx=0;entryDy=0;strokeWidth=1;fillColor=#d5e8d4;strokeColor=#82b366;shape=flexArrow;endSize=6;width=5;startSize=6;arcSize=20;endWidth=10;" edge="1" parent="1">
          <mxGeometry relative="1" as="geometry">
            <mxPoint x="333" y="380" as="sourcePoint" />
            <mxPoint x="393" y="380" as="targetPoint" />
          </mxGeometry>
        </mxCell>
        <mxCell id="qRddKZDDPYB80dDuYmWu-136" style="edgeStyle=orthogonalEdgeStyle;rounded=0;orthogonalLoop=1;jettySize=auto;html=1;exitX=0;exitY=0.75;exitDx=0;exitDy=0;strokeWidth=1;fillColor=#fff2cc;strokeColor=#d6b656;shape=flexArrow;endSize=6;width=5;startSize=6;arcSize=20;endWidth=10;" edge="1" parent="1">
          <mxGeometry relative="1" as="geometry">
            <mxPoint x="433" y="380" as="sourcePoint" />
            <mxPoint x="493" y="380" as="targetPoint" />
          </mxGeometry>
        </mxCell>
        <mxCell id="qRddKZDDPYB80dDuYmWu-137" style="edgeStyle=orthogonalEdgeStyle;rounded=0;orthogonalLoop=1;jettySize=auto;html=1;exitX=0;exitY=0.75;exitDx=0;exitDy=0;strokeWidth=1;fillColor=#f8cecc;strokeColor=#b85450;shape=flexArrow;endSize=6;width=5;startSize=6;arcSize=20;endWidth=10;" edge="1" parent="1">
          <mxGeometry relative="1" as="geometry">
            <mxPoint x="533" y="380" as="sourcePoint" />
            <mxPoint x="593" y="380" as="targetPoint" />
          </mxGeometry>
        </mxCell>
        <mxCell id="qRddKZDDPYB80dDuYmWu-139" value="RelaÃ§Ã£o&lt;div&gt;entre entidades&lt;/div&gt;" style="text;html=1;align=center;verticalAlign=top;whiteSpace=wrap;rounded=0;fontSize=8;" vertex="1" parent="1">
          <mxGeometry x="230" y="400" width="60" height="30" as="geometry" />
        </mxCell>
        <mxCell id="qRddKZDDPYB80dDuYmWu-140" value="Feito em todos os casos" style="text;html=1;align=center;verticalAlign=top;whiteSpace=wrap;rounded=0;fontSize=8;" vertex="1" parent="1">
          <mxGeometry x="330" y="400" width="60" height="30" as="geometry" />
        </mxCell>
        <mxCell id="qRddKZDDPYB80dDuYmWu-141" value="Feito quando necessÃ¡rio" style="text;html=1;align=center;verticalAlign=top;whiteSpace=wrap;rounded=0;fontSize=8;" vertex="1" parent="1">
          <mxGeometry x="430" y="400" width="60" height="30" as="geometry" />
        </mxCell>
        <mxCell id="qRddKZDDPYB80dDuYmWu-142" value="NÃ£o serÃ¡ feito" style="text;html=1;align=center;verticalAlign=top;whiteSpace=wrap;rounded=0;fontSize=8;" vertex="1" parent="1">
          <mxGeometry x="530" y="400" width="60" height="30" as="geometry" />
        </mxCell>
      </root>
    </mxGraphModel>
  </diagram>
</mxfile>
